<?xml version="1.0" encoding="UTF-8"?>
<svg version="1.1" xmlns="http://www.w3.org/2000/svg" width="512" height="512">
<path d="M0 0 C3.1551557 1.16569792 6.36723794 1.93434158 9.62890625 2.75390625 C19.9133201 5.39748463 29.28342758 9.42790263 38.37890625 14.87890625 C39.63767578 15.59626953 39.63767578 15.59626953 40.921875 16.328125 C48.486892 20.83656948 54.66379148 26.40115075 60.94970703 32.50097656 C62.14589793 33.65425662 63.36700755 34.78161608 64.59375 35.90234375 C74.27609302 44.9708777 81.47188545 56.44977442 87.72265625 68.05078125 C90.15118731 72.27670835 90.15118731 72.27670835 94.31738281 74.41552734 C95.0440918 74.49367676 95.77080078 74.57182617 96.51953125 74.65234375 C97.33534668 74.75184326 98.15116211 74.85134277 98.99169922 74.95385742 C99.86197754 75.05287354 100.73225586 75.15188965 101.62890625 75.25390625 C121.89078191 77.96992173 143.10976169 86.72541293 156.76171875 102.66015625 C160.18477507 105.56209057 162.92392164 105.45684788 167.19140625 105.19140625 C167.88427734 105.16884766 168.57714844 105.14628906 169.29101562 105.12304688 C170.98792198 105.06453286 172.68370486 104.97486105 174.37890625 104.87890625 C174.40078003 105.83144287 174.40078003 105.83144287 174.4230957 106.80322266 C174.49795714 109.70403706 174.59449051 112.60374831 174.69140625 115.50390625 C174.71396484 116.50292969 174.73652344 117.50195312 174.75976562 118.53125 C174.96218404 124.08855544 175.43855033 128.00721735 178.37890625 132.87890625 C178.37890625 133.53890625 178.37890625 134.19890625 178.37890625 134.87890625 C179.81630138 134.90602691 181.25384488 134.92535692 182.69140625 134.94140625 C183.49191406 134.95300781 184.29242188 134.96460938 185.1171875 134.9765625 C187.54751959 134.9754848 187.54751959 134.9754848 190.37890625 133.87890625 C191.03890625 134.20890625 191.69890625 134.53890625 192.37890625 134.87890625 C192.37890625 135.53890625 192.37890625 136.19890625 192.37890625 136.87890625 C192.94738281 136.98847656 193.51585937 137.09804687 194.1015625 137.2109375 C199.18845637 138.25549167 203.64518491 139.68110706 208.37890625 141.87890625 C210.02377272 142.61025137 211.66963488 143.33936055 213.31640625 144.06640625 C214.67077993 144.67010871 216.02502092 145.2741094 217.37890625 145.87890625 C217.37890625 146.53890625 217.37890625 147.19890625 217.37890625 147.87890625 C218.36890625 147.87890625 219.35890625 147.87890625 220.37890625 147.87890625 C221.76249865 149.16001032 223.08110993 150.51095878 224.37890625 151.87890625 C225.66403948 152.99067033 226.95641031 154.0940954 228.25390625 155.19140625 C231.50967671 158.01064882 234.33529872 160.96582882 237.0546875 164.30078125 C238.36623842 165.93574258 238.36623842 165.93574258 240.046875 167.39453125 C241.37890625 168.87890625 241.37890625 168.87890625 241.37890625 171.87890625 C242.03890625 171.87890625 242.69890625 171.87890625 243.37890625 171.87890625 C244.65514618 174.68905926 245.92496271 177.50184084 247.19140625 180.31640625 C247.54783203 181.09951172 247.90425781 181.88261719 248.27148438 182.68945312 C248.62275391 183.47255859 248.97402344 184.25566406 249.3359375 185.0625 C249.8151062 186.12295532 249.8151062 186.12295532 250.30395508 187.20483398 C250.83605591 188.52849976 250.83605591 188.52849976 251.37890625 189.87890625 C251.63794235 190.46193008 251.89697845 191.04495392 252.16386414 191.64564514 C255.07857073 198.98886723 254.75966983 206.43159877 254.671875 214.1953125 C254.66626908 215.66218122 254.6620037 217.12905562 254.65901184 218.59593201 C254.64764126 222.42811001 254.6182429 226.25993858 254.5848999 230.09197998 C254.55402948 234.01374588 254.5404705 237.93556909 254.52539062 241.85742188 C254.49336418 249.53142659 254.44066175 257.20507264 254.37890625 264.87890625 C249.09890625 264.54890625 243.81890625 264.21890625 238.37890625 263.87890625 C238.09002412 269.0541821 238.09002412 269.0541821 237.81079102 274.22998047 C237.49001736 279.65668403 237.49001736 279.65668403 236.37890625 281.87890625 C233.73890625 281.54890625 231.09890625 281.21890625 228.37890625 280.87890625 C228.37890625 281.53890625 228.37890625 282.19890625 228.37890625 282.87890625 C227.38890625 282.87890625 226.39890625 282.87890625 225.37890625 282.87890625 C224.71890625 282.21890625 224.05890625 281.55890625 223.37890625 280.87890625 C221.27431364 282.16988317 219.17021917 283.46165984 217.06640625 284.75390625 C216.47150391 285.11871094 215.87660156 285.48351562 215.26367188 285.859375 C212.60528326 287.49302164 209.97546888 289.14786449 207.37890625 290.87890625 C207.99765625 291.60078125 208.61640625 292.32265625 209.25390625 293.06640625 C213.06798006 298.11444511 213.60062098 301.29817097 212.85327148 307.42285156 C211.93086218 312.19868153 209.76472911 316.44907833 207.73046875 320.8359375 C205.85318628 325.07521062 205.15492762 327.27706452 206.37890625 331.87890625 C205.70703125 334.125 205.70703125 334.125 204.62890625 336.31640625 C204.25507813 337.09113281 203.88125 337.86585938 203.49609375 338.6640625 C203.12742187 339.39496094 202.75875 340.12585938 202.37890625 340.87890625 C201.84265625 341.99265625 201.30640625 343.10640625 200.75390625 344.25390625 C199.37890625 346.87890625 199.37890625 346.87890625 197.37890625 349.87890625 C197.70890625 350.53890625 198.03890625 351.19890625 198.37890625 351.87890625 C197.71890625 351.87890625 197.05890625 351.87890625 196.37890625 351.87890625 C196.48203125 352.97203125 196.58515625 354.06515625 196.69140625 355.19140625 C196.58828125 356.40828125 196.48515625 357.62515625 196.37890625 358.87890625 C194.06640625 360.44140625 194.06640625 360.44140625 191.37890625 361.87890625 C190.32881972 363.85306893 189.32902749 365.85473491 188.37890625 367.87890625 C184.73589757 372.40126185 180.91673192 373.57436717 175.25390625 374.25390625 C165.95953289 373.35445076 157.65224789 369.14188207 149.296875 365.21875 C143.2929083 362.20636642 143.2929083 362.20636642 136.87890625 362.75390625 C134.17455749 365.05260269 132.01885141 367.51847458 129.734375 370.2265625 C126.55691643 373.80449677 123.19808764 377.18225948 119.81640625 380.56640625 C119.17912598 381.20803711 118.5418457 381.84966797 117.88525391 382.51074219 C114.2002894 386.18520822 110.43115285 389.61338241 106.37890625 392.87890625 C107.92360915 397.83821557 109.62091002 402.54443131 111.81640625 407.25390625 C120.2597755 425.49260418 120.2597755 425.49260418 118.87890625 435.50390625 C116.25870362 441.39936217 112.57330323 444.07546948 106.640625 446.4453125 C103.83634717 447.50813612 101.01319121 448.51080585 98.18359375 449.50390625 C94.71673426 450.72612112 91.52492713 452.22836889 88.28125 453.953125 C85.06370909 455.51895086 81.67907393 456.62209495 78.30859375 457.8125 C72.42024209 459.95586001 66.55668209 462.30781388 60.9375 465.0859375 C54.38625782 468.310288 49.26905903 468.55220192 42.12890625 467.31640625 C38.77833828 465.56497299 37.5413384 463.60548326 35.53515625 460.48046875 C34.09715998 458.4886496 32.57468839 457.90360458 30.37890625 456.87890625 C28.15416734 453.71293164 26.8018241 450.45471466 25.37890625 446.87890625 C25.01410156 446.06550781 24.64929688 445.25210937 24.2734375 444.4140625 C22.13872344 439.53581702 20.6979902 436.20180709 22.37890625 430.87890625 C21.71890625 430.54890625 21.05890625 430.21890625 20.37890625 429.87890625 C21.03890625 429.87890625 21.69890625 429.87890625 22.37890625 429.87890625 C22.37890625 429.21890625 22.37890625 428.55890625 22.37890625 427.87890625 C20.87432861 428.3735437 20.87432861 428.3735437 19.33935547 428.87817383 C15.48924453 429.97309026 12.02459826 430.03870269 8.01171875 429.890625 C7.33269501 429.86797073 6.65367126 429.84531647 5.95407104 429.82197571 C4.52697002 429.7723489 3.1000436 429.71744205 1.67333984 429.6574707 C-0.4831389 429.56695004 -2.63970732 429.49195859 -4.796875 429.41992188 C-11.77560329 429.17182558 -18.6915884 428.78578782 -25.62109375 427.87890625 C-25.62109375 428.53890625 -25.62109375 429.19890625 -25.62109375 429.87890625 C-24.96109375 430.20890625 -24.30109375 430.53890625 -23.62109375 430.87890625 C-24.61109375 431.53890625 -25.60109375 432.19890625 -26.62109375 432.87890625 C-27.64349838 435.3144621 -28.53081087 437.69457395 -29.37109375 440.19140625 C-36.92955733 461.34792853 -36.92955733 461.34792853 -45.62109375 466.87890625 C-53.62463931 469.54675477 -59.69204087 467.06298098 -67.078125 463.86328125 C-68.06173508 463.45104309 -69.04534515 463.03880493 -70.0587616 462.61407471 C-73.18950409 461.29895967 -76.31163361 459.96471829 -79.43359375 458.62890625 C-82.54642453 457.31144661 -85.6609219 455.99802988 -88.77629089 454.68658447 C-90.70824771 453.87174836 -92.63848382 453.05281497 -94.56660461 452.22894287 C-100.04970072 449.8985429 -105.55776279 447.78571652 -111.19975281 445.86871338 C-116.47207209 443.71346993 -119.78150125 440.73300635 -122.12109375 435.56640625 C-123.42024192 425.98518846 -120.29583509 419.32064254 -116.40234375 410.84375 C-114.48549011 406.65465967 -112.9218391 402.37839365 -111.4453125 398.015625 C-110.62109375 395.87890625 -110.62109375 395.87890625 -108.62109375 392.87890625 C-115.55109375 392.87890625 -122.48109375 392.87890625 -129.62109375 392.87890625 C-129.43546875 389.95015625 -129.24984375 387.02140625 -129.05859375 384.00390625 C-128.8818165 377.4103954 -129.19604573 372.97617594 -133.74609375 367.81640625 C-137.10198198 364.60175911 -140.11100675 363.01579799 -144.62109375 361.87890625 C-146.70345201 362.50262685 -146.70345201 362.50262685 -148.62109375 363.87890625 C-151.61507803 365.40644925 -154.43035118 366.81532539 -157.62109375 367.87890625 C-158.11609375 369.11640625 -158.11609375 369.11640625 -158.62109375 370.37890625 C-159.11609375 371.61640625 -159.11609375 371.61640625 -159.62109375 372.87890625 C-160.61109375 373.20890625 -161.60109375 373.53890625 -162.62109375 373.87890625 C-163.61109375 372.39390625 -163.61109375 372.39390625 -164.62109375 370.87890625 C-165.16636719 371.09546875 -165.71164063 371.31203125 -166.2734375 371.53515625 C-172.66465748 373.89499132 -178.92435942 375.55924004 -185.37109375 372.62890625 C-186.11359375 372.05140625 -186.85609375 371.47390625 -187.62109375 370.87890625 C-188.4203125 370.358125 -189.21953125 369.83734375 -190.04296875 369.30078125 C-193.49023698 366.06243837 -194.58104303 362.77638402 -196.12109375 358.37890625 C-196.72159412 356.75221168 -197.32315887 355.12590965 -197.92578125 353.5 C-198.21420898 352.70835449 -198.50263672 351.91670898 -198.79980469 351.10107422 C-201.63746767 343.42318822 -205.0171675 335.97386312 -208.4296875 328.5390625 C-209.95459338 325.13427264 -211.3576249 321.69258208 -212.70703125 318.21484375 C-213.28823291 316.72955062 -213.89500608 315.25382426 -214.53515625 313.79296875 C-216.64323697 308.80844144 -217.37759554 304.27804914 -216.62109375 298.87890625 C-215.43359375 296.12890625 -215.43359375 296.12890625 -213.62109375 293.87890625 C-212.94046875 293.03328125 -212.25984375 292.18765625 -211.55859375 291.31640625 C-207.62592234 288.05312572 -203.41042318 286.54354696 -198.62109375 284.87890625 C-199.26433594 284.57339844 -199.90757812 284.26789063 -200.5703125 283.953125 C-227.28741624 270.42306533 -244.97870214 245.05856828 -254.453125 217.28613281 C-260.96662283 195.97287698 -260.08153491 169.78806551 -252.62109375 148.87890625 C-252.275625 147.86570313 -251.93015625 146.8525 -251.57421875 145.80859375 C-249.39287938 139.96188904 -246.49347347 134.41176883 -243.62109375 128.87890625 C-242.96109375 128.87890625 -242.30109375 128.87890625 -241.62109375 128.87890625 C-241.37359375 127.9971875 -241.12609375 127.11546875 -240.87109375 126.20703125 C-234.13108499 108.26175793 -210.44521555 91.94353535 -193.62109375 83.87890625 C-189.79105339 82.37907864 -185.89884984 81.13272595 -181.96875 79.921875 C-178.71114952 78.95901351 -178.71114952 78.95901351 -175.99609375 77.80859375 C-173.51736326 76.83830122 -171.17372173 76.29739579 -168.55859375 75.81640625 C-165.05364233 75.16680324 -165.05364233 75.16680324 -161.59375 74.3203125 C-158.66156667 73.66420019 -155.82846243 73.85952629 -152.83984375 73.94140625 C-150.61898842 73.87884694 -148.7481201 73.49767755 -146.62109375 72.87890625 C-146.66234375 72.11578125 -146.70359375 71.35265625 -146.74609375 70.56640625 C-146.62109375 67.87890625 -146.62109375 67.87890625 -144.62109375 64.87890625 C-143.96109375 64.56953125 -143.30109375 64.26015625 -142.62109375 63.94140625 C-140.10582761 62.60517112 -139.81508251 61.41613237 -138.62109375 58.87890625 C-137.30979453 57.52389706 -135.97417688 56.19219282 -134.62109375 54.87890625 C-131.55338211 51.59969376 -131.55338211 51.59969376 -130.30859375 47.44140625 C-129.19607102 43.29473063 -125.90275761 41.4600611 -122.62109375 38.87890625 C-117.90580662 34.95252293 -113.68834964 31.04395333 -109.9453125 26.1640625 C-108.62109375 24.87890625 -108.62109375 24.87890625 -105.62109375 24.87890625 C-105.29109375 24.21890625 -104.96109375 23.55890625 -104.62109375 22.87890625 C-81.74301598 6.14987705 -55.28805895 -1.49815289 -27.24609375 -2.74609375 C-26.26898438 -2.79765625 -25.291875 -2.84921875 -24.28515625 -2.90234375 C-15.84200358 -3.28408204 -7.894344 -3.30127113 0 0 Z M226.37890625 279.87890625 C227.37890625 281.87890625 227.37890625 281.87890625 227.37890625 281.87890625 Z M-99.62109375 296.87890625 C-95.14784062 305.07987032 -91.47523313 311.03045693 -85.62109375 317.87890625 C-85.028125 318.61753906 -84.43515625 319.35617187 -83.82421875 320.1171875 C-75.38926984 330.26435894 -64.47379043 338.19031631 -52.62109375 343.87890625 C-51.76386719 344.30558594 -50.90664062 344.73226562 -50.0234375 345.171875 C-24.19007364 357.53688715 5.5069589 360.34935258 32.81054688 351.05078125 C43.1701361 347.56688936 43.1701361 347.56688936 52.37890625 341.87890625 C53.72216048 341.15009108 55.07707062 340.44244947 56.44140625 339.75390625 C64.3945398 335.39674397 71.43444792 329.50340469 77.11328125 322.4375 C79.67418472 319.28379481 82.67992953 316.53905093 85.62890625 313.75390625 C87.60334348 311.8991345 87.60334348 311.8991345 88.37890625 308.87890625 C89.36890625 307.88890625 90.35890625 306.89890625 91.37890625 305.87890625 C92.69890625 302.90890625 94.01890625 299.93890625 95.37890625 296.87890625 C31.02890625 296.87890625 -33.32109375 296.87890625 -99.62109375 296.87890625 Z " fill="#02A8F3" transform="translate(257.62109375,23.12109375)"/>
<path d="M0 0 C3.1551557 1.16569792 6.36723794 1.93434158 9.62890625 2.75390625 C19.9133201 5.39748463 29.28342758 9.42790263 38.37890625 14.87890625 C39.63767578 15.59626953 39.63767578 15.59626953 40.921875 16.328125 C48.486892 20.83656948 54.66379148 26.40115075 60.94970703 32.50097656 C62.14589793 33.65425662 63.36700755 34.78161608 64.59375 35.90234375 C74.27609302 44.9708777 81.47188545 56.44977442 87.72265625 68.05078125 C90.15118731 72.27670835 90.15118731 72.27670835 94.31738281 74.41552734 C95.0440918 74.49367676 95.77080078 74.57182617 96.51953125 74.65234375 C97.33534668 74.75184326 98.15116211 74.85134277 98.99169922 74.95385742 C99.86197754 75.05287354 100.73225586 75.15188965 101.62890625 75.25390625 C121.89078191 77.96992173 143.10976169 86.72541293 156.76171875 102.66015625 C160.18477507 105.56209057 162.92392164 105.45684788 167.19140625 105.19140625 C167.88427734 105.16884766 168.57714844 105.14628906 169.29101562 105.12304688 C170.98792198 105.06453286 172.68370486 104.97486105 174.37890625 104.87890625 C174.40078003 105.83144287 174.40078003 105.83144287 174.4230957 106.80322266 C174.49795714 109.70403706 174.59449051 112.60374831 174.69140625 115.50390625 C174.71396484 116.50292969 174.73652344 117.50195312 174.75976562 118.53125 C174.96218404 124.08855544 175.43855033 128.00721735 178.37890625 132.87890625 C178.37890625 133.53890625 178.37890625 134.19890625 178.37890625 134.87890625 C179.81630138 134.90602691 181.25384488 134.92535692 182.69140625 134.94140625 C183.49191406 134.95300781 184.29242188 134.96460938 185.1171875 134.9765625 C187.54751959 134.9754848 187.54751959 134.9754848 190.37890625 133.87890625 C191.03890625 134.20890625 191.69890625 134.53890625 192.37890625 134.87890625 C192.37890625 135.53890625 192.37890625 136.19890625 192.37890625 136.87890625 C192.94738281 136.98847656 193.51585937 137.09804687 194.1015625 137.2109375 C199.18845637 138.25549167 203.64518491 139.68110706 208.37890625 141.87890625 C210.02377272 142.61025137 211.66963488 143.33936055 213.31640625 144.06640625 C214.67077993 144.67010871 216.02502092 145.2741094 217.37890625 145.87890625 C217.37890625 146.53890625 217.37890625 147.19890625 217.37890625 147.87890625 C218.36890625 147.87890625 219.35890625 147.87890625 220.37890625 147.87890625 C221.76249865 149.16001032 223.08110993 150.51095878 224.37890625 151.87890625 C225.66403948 152.99067033 226.95641031 154.0940954 228.25390625 155.19140625 C231.50967671 158.01064882 234.33529872 160.96582882 237.0546875 164.30078125 C238.36623842 165.93574258 238.36623842 165.93574258 240.046875 167.39453125 C241.37890625 168.87890625 241.37890625 168.87890625 241.37890625 171.87890625 C242.03890625 171.87890625 242.69890625 171.87890625 243.37890625 171.87890625 C244.65514618 174.68905926 245.92496271 177.50184084 247.19140625 180.31640625 C247.54783203 181.09951172 247.90425781 181.88261719 248.27148438 182.68945312 C248.62275391 183.47255859 248.97402344 184.25566406 249.3359375 185.0625 C249.8151062 186.12295532 249.8151062 186.12295532 250.30395508 187.20483398 C250.83605591 188.52849976 250.83605591 188.52849976 251.37890625 189.87890625 C251.63794235 190.46193008 251.89697845 191.04495392 252.16386414 191.64564514 C255.07857073 198.98886723 254.75966983 206.43159877 254.671875 214.1953125 C254.66626908 215.66218122 254.6620037 217.12905562 254.65901184 218.59593201 C254.64764126 222.42811001 254.6182429 226.25993858 254.5848999 230.09197998 C254.55402948 234.01374588 254.5404705 237.93556909 254.52539062 241.85742188 C254.49336418 249.53142659 254.44066175 257.20507264 254.37890625 264.87890625 C249.09890625 264.54890625 243.81890625 264.21890625 238.37890625 263.87890625 C238.09002412 269.0541821 238.09002412 269.0541821 237.81079102 274.22998047 C237.49001736 279.65668403 237.49001736 279.65668403 236.37890625 281.87890625 C233.73890625 281.54890625 231.09890625 281.21890625 228.37890625 280.87890625 C228.37890625 281.53890625 228.37890625 282.19890625 228.37890625 282.87890625 C227.38890625 282.87890625 226.39890625 282.87890625 225.37890625 282.87890625 C224.71890625 282.21890625 224.05890625 281.55890625 223.37890625 280.87890625 C221.27431364 282.16988317 219.17021917 283.46165984 217.06640625 284.75390625 C216.47150391 285.11871094 215.87660156 285.48351562 215.26367188 285.859375 C212.60528326 287.49302164 209.97546888 289.14786449 207.37890625 290.87890625 C207.99765625 291.60078125 208.61640625 292.32265625 209.25390625 293.06640625 C213.06798006 298.11444511 213.60062098 301.29817097 212.85327148 307.42285156 C211.93086218 312.19868153 209.76472911 316.44907833 207.73046875 320.8359375 C205.85318628 325.07521062 205.15492762 327.27706452 206.37890625 331.87890625 C205.70703125 334.125 205.70703125 334.125 204.62890625 336.31640625 C204.25507813 337.09113281 203.88125 337.86585938 203.49609375 338.6640625 C203.12742187 339.39496094 202.75875 340.12585938 202.37890625 340.87890625 C201.84265625 341.99265625 201.30640625 343.10640625 200.75390625 344.25390625 C199.37890625 346.87890625 199.37890625 346.87890625 197.37890625 349.87890625 C197.70890625 350.53890625 198.03890625 351.19890625 198.37890625 351.87890625 C197.71890625 351.87890625 197.05890625 351.87890625 196.37890625 351.87890625 C196.48203125 352.97203125 196.58515625 354.06515625 196.69140625 355.19140625 C196.58828125 356.40828125 196.48515625 357.62515625 196.37890625 358.87890625 C194.06640625 360.44140625 194.06640625 360.44140625 191.37890625 361.87890625 C190.32881972 363.85306893 189.32902749 365.85473491 188.37890625 367.87890625 C184.73589757 372.40126185 180.91673192 373.57436717 175.25390625 374.25390625 C165.95953289 373.35445076 157.65224789 369.14188207 149.296875 365.21875 C143.2929083 362.20636642 143.2929083 362.20636642 136.87890625 362.75390625 C134.17455749 365.05260269 132.01885141 367.51847458 129.734375 370.2265625 C126.55691643 373.80449677 123.19808764 377.18225948 119.81640625 380.56640625 C119.17912598 381.20803711 118.5418457 381.84966797 117.88525391 382.51074219 C114.2002894 386.18520822 110.43115285 389.61338241 106.37890625 392.87890625 C107.92360915 397.83821557 109.62091002 402.54443131 111.81640625 407.25390625 C120.2597755 425.49260418 120.2597755 425.49260418 118.87890625 435.50390625 C116.25870362 441.39936217 112.57330323 444.07546948 106.640625 446.4453125 C103.83634717 447.50813612 101.01319121 448.51080585 98.18359375 449.50390625 C94.71673426 450.72612112 91.52492713 452.22836889 88.28125 453.953125 C85.06370909 455.51895086 81.67907393 456.62209495 78.30859375 457.8125 C72.42024209 459.95586001 66.55668209 462.30781388 60.9375 465.0859375 C54.38625782 468.310288 49.26905903 468.55220192 42.12890625 467.31640625 C38.77833828 465.56497299 37.5413384 463.60548326 35.53515625 460.48046875 C34.09715998 458.4886496 32.57468839 457.90360458 30.37890625 456.87890625 C28.15416734 453.71293164 26.8018241 450.45471466 25.37890625 446.87890625 C25.01410156 446.06550781 24.64929688 445.25210937 24.2734375 444.4140625 C22.13872344 439.53581702 20.6979902 436.20180709 22.37890625 430.87890625 C21.71890625 430.54890625 21.05890625 430.21890625 20.37890625 429.87890625 C21.03890625 429.87890625 21.69890625 429.87890625 22.37890625 429.87890625 C22.37890625 429.21890625 22.37890625 428.55890625 22.37890625 427.87890625 C20.87432861 428.3735437 20.87432861 428.3735437 19.33935547 428.87817383 C15.48924453 429.97309026 12.02459826 430.03870269 8.01171875 429.890625 C7.33269501 429.86797073 6.65367126 429.84531647 5.95407104 429.82197571 C4.52697002 429.7723489 3.1000436 429.71744205 1.67333984 429.6574707 C-0.4831389 429.56695004 -2.63970732 429.49195859 -4.796875 429.41992188 C-11.77560329 429.17182558 -18.6915884 428.78578782 -25.62109375 427.87890625 C-25.62109375 428.53890625 -25.62109375 429.19890625 -25.62109375 429.87890625 C-24.96109375 430.20890625 -24.30109375 430.53890625 -23.62109375 430.87890625 C-24.61109375 431.53890625 -25.60109375 432.19890625 -26.62109375 432.87890625 C-27.64349838 435.3144621 -28.53081087 437.69457395 -29.37109375 440.19140625 C-36.92955733 461.34792853 -36.92955733 461.34792853 -45.62109375 466.87890625 C-53.62463931 469.54675477 -59.69204087 467.06298098 -67.078125 463.86328125 C-68.06173508 463.45104309 -69.04534515 463.03880493 -70.0587616 462.61407471 C-73.18950409 461.29895967 -76.31163361 459.96471829 -79.43359375 458.62890625 C-82.54642453 457.31144661 -85.6609219 455.99802988 -88.77629089 454.68658447 C-90.70824771 453.87174836 -92.63848382 453.05281497 -94.56660461 452.22894287 C-100.04970072 449.8985429 -105.55776279 447.78571652 -111.19975281 445.86871338 C-116.47207209 443.71346993 -119.78150125 440.73300635 -122.12109375 435.56640625 C-123.42024192 425.98518846 -120.29583509 419.32064254 -116.40234375 410.84375 C-114.48549011 406.65465967 -112.9218391 402.37839365 -111.4453125 398.015625 C-110.62109375 395.87890625 -110.62109375 395.87890625 -108.62109375 392.87890625 C-115.55109375 392.87890625 -122.48109375 392.87890625 -129.62109375 392.87890625 C-129.43546875 389.95015625 -129.24984375 387.02140625 -129.05859375 384.00390625 C-128.8818165 377.4103954 -129.19604573 372.97617594 -133.74609375 367.81640625 C-137.10198198 364.60175911 -140.11100675 363.01579799 -144.62109375 361.87890625 C-146.70345201 362.50262685 -146.70345201 362.50262685 -148.62109375 363.87890625 C-151.61507803 365.40644925 -154.43035118 366.81532539 -157.62109375 367.87890625 C-158.11609375 369.11640625 -158.11609375 369.11640625 -158.62109375 370.37890625 C-159.11609375 371.61640625 -159.11609375 371.61640625 -159.62109375 372.87890625 C-160.61109375 373.20890625 -161.60109375 373.53890625 -162.62109375 373.87890625 C-163.61109375 372.39390625 -163.61109375 372.39390625 -164.62109375 370.87890625 C-165.16636719 371.09546875 -165.71164063 371.31203125 -166.2734375 371.53515625 C-172.66465748 373.89499132 -178.92435942 375.55924004 -185.37109375 372.62890625 C-186.11359375 372.05140625 -186.85609375 371.47390625 -187.62109375 370.87890625 C-188.4203125 370.358125 -189.21953125 369.83734375 -190.04296875 369.30078125 C-193.49023698 366.06243837 -194.58104303 362.77638402 -196.12109375 358.37890625 C-196.72159412 356.75221168 -197.32315887 355.12590965 -197.92578125 353.5 C-198.21420898 352.70835449 -198.50263672 351.91670898 -198.79980469 351.10107422 C-201.63746767 343.42318822 -205.0171675 335.97386312 -208.4296875 328.5390625 C-209.95459338 325.13427264 -211.3576249 321.69258208 -212.70703125 318.21484375 C-213.28823291 316.72955062 -213.89500608 315.25382426 -214.53515625 313.79296875 C-216.64323697 308.80844144 -217.37759554 304.27804914 -216.62109375 298.87890625 C-215.43359375 296.12890625 -215.43359375 296.12890625 -213.62109375 293.87890625 C-212.94046875 293.03328125 -212.25984375 292.18765625 -211.55859375 291.31640625 C-207.62592234 288.05312572 -203.41042318 286.54354696 -198.62109375 284.87890625 C-199.26433594 284.57339844 -199.90757812 284.26789063 -200.5703125 283.953125 C-227.28741624 270.42306533 -244.97870214 245.05856828 -254.453125 217.28613281 C-260.96662283 195.97287698 -260.08153491 169.78806551 -252.62109375 148.87890625 C-252.275625 147.86570313 -251.93015625 146.8525 -251.57421875 145.80859375 C-249.39287938 139.96188904 -246.49347347 134.41176883 -243.62109375 128.87890625 C-242.96109375 128.87890625 -242.30109375 128.87890625 -241.62109375 128.87890625 C-241.37359375 127.9971875 -241.12609375 127.11546875 -240.87109375 126.20703125 C-234.13108499 108.26175793 -210.44521555 91.94353535 -193.62109375 83.87890625 C-189.79105339 82.37907864 -185.89884984 81.13272595 -181.96875 79.921875 C-178.71114952 78.95901351 -178.71114952 78.95901351 -175.99609375 77.80859375 C-173.51736326 76.83830122 -171.17372173 76.29739579 -168.55859375 75.81640625 C-165.05364233 75.16680324 -165.05364233 75.16680324 -161.59375 74.3203125 C-158.66156667 73.66420019 -155.82846243 73.85952629 -152.83984375 73.94140625 C-150.61898842 73.87884694 -148.7481201 73.49767755 -146.62109375 72.87890625 C-146.66234375 72.11578125 -146.70359375 71.35265625 -146.74609375 70.56640625 C-146.62109375 67.87890625 -146.62109375 67.87890625 -144.62109375 64.87890625 C-143.96109375 64.56953125 -143.30109375 64.26015625 -142.62109375 63.94140625 C-140.10582761 62.60517112 -139.81508251 61.41613237 -138.62109375 58.87890625 C-137.30979453 57.52389706 -135.97417688 56.19219282 -134.62109375 54.87890625 C-131.55338211 51.59969376 -131.55338211 51.59969376 -130.30859375 47.44140625 C-129.19607102 43.29473063 -125.90275761 41.4600611 -122.62109375 38.87890625 C-117.90580662 34.95252293 -113.68834964 31.04395333 -109.9453125 26.1640625 C-108.62109375 24.87890625 -108.62109375 24.87890625 -105.62109375 24.87890625 C-105.29109375 24.21890625 -104.96109375 23.55890625 -104.62109375 22.87890625 C-81.74301598 6.14987705 -55.28805895 -1.49815289 -27.24609375 -2.74609375 C-26.26898438 -2.79765625 -25.291875 -2.84921875 -24.28515625 -2.90234375 C-15.84200358 -3.28408204 -7.894344 -3.30127113 0 0 Z M-95.62109375 38.87890625 C-95.62109375 39.53890625 -95.62109375 40.19890625 -95.62109375 40.87890625 C-96.17796875 40.95625 -96.73484375 41.03359375 -97.30859375 41.11328125 C-100.4352787 42.14846748 -102.20506695 43.90439377 -104.62109375 46.12890625 C-105.46671875 46.8971875 -106.31234375 47.66546875 -107.18359375 48.45703125 C-109.56423836 50.82241532 -111.68529385 53.13652306 -113.62109375 55.87890625 C-113.62109375 56.86890625 -113.62109375 57.85890625 -113.62109375 58.87890625 C-114.19859375 59.08515625 -114.77609375 59.29140625 -115.37109375 59.50390625 C-118.50457649 61.41881237 -119.84223962 63.70238102 -121.62109375 66.87890625 C-121.62109375 68.19890625 -121.62109375 69.51890625 -121.62109375 70.87890625 C-123.10609375 71.37390625 -123.10609375 71.37390625 -124.62109375 71.87890625 C-125.72258138 73.53203814 -125.72258138 73.53203814 -126.55859375 75.58984375 C-127.06519531 76.71519531 -127.06519531 76.71519531 -127.58203125 77.86328125 C-127.92492187 78.6521875 -128.2678125 79.44109375 -128.62109375 80.25390625 C-129.30242344 81.80610849 -129.9897254 83.3557059 -130.68359375 84.90234375 C-130.98394531 85.59247559 -131.28429687 86.28260742 -131.59375 86.99365234 C-132.76151563 89.13659108 -133.64249457 90.43119826 -135.62109375 91.87890625 C-138.21459961 92.21606445 -138.21459961 92.21606445 -141.3359375 92.1796875 C-142.48763428 92.18371582 -143.63933105 92.18774414 -144.82592773 92.19189453 C-146.05770752 92.1917334 -147.2894873 92.19157227 -148.55859375 92.19140625 C-169.17012104 92.56848658 -190.38234099 97.95516647 -205.62109375 112.87890625 C-205.62109375 113.53890625 -205.62109375 114.19890625 -205.62109375 114.87890625 C-206.1934375 114.96398437 -206.76578125 115.0490625 -207.35546875 115.13671875 C-210.27670092 116.09367411 -211.71790096 117.57678909 -213.87109375 119.75390625 C-214.5775 120.45257813 -215.28390625 121.15125 -216.01171875 121.87109375 C-217.93381139 123.84017629 -217.93381139 123.84017629 -217.62109375 126.87890625 C-218.21019531 127.11609375 -218.79929687 127.35328125 -219.40625 127.59765625 C-230.42282956 133.97056294 -235.21502242 152.4161662 -238.62109375 163.87890625 C-243.27739519 183.07880868 -241.35078634 207.33646902 -232.62109375 224.87890625 C-232.1003125 226.00554687 -231.57953125 227.1321875 -231.04296875 228.29296875 C-229.96726687 230.53710543 -228.85452092 232.7189877 -227.62109375 234.87890625 C-226.96109375 234.87890625 -226.30109375 234.87890625 -225.62109375 234.87890625 C-224.96109375 236.85890625 -224.30109375 238.83890625 -223.62109375 240.87890625 C-222.96109375 240.87890625 -222.30109375 240.87890625 -221.62109375 240.87890625 C-221.37359375 241.60078125 -221.12609375 242.32265625 -220.87109375 243.06640625 C-219.49839783 246.15497207 -217.89756079 248.38902043 -215.62109375 250.87890625 C-214.96109375 250.87890625 -214.30109375 250.87890625 -213.62109375 250.87890625 C-213.62109375 251.53890625 -213.62109375 252.19890625 -213.62109375 252.87890625 C-212.96109375 252.87890625 -212.30109375 252.87890625 -211.62109375 252.87890625 C-211.62109375 253.53890625 -211.62109375 254.19890625 -211.62109375 254.87890625 C-210.96109375 254.87890625 -210.30109375 254.87890625 -209.62109375 254.87890625 C-209.62109375 255.53890625 -209.62109375 256.19890625 -209.62109375 256.87890625 C-207.90611603 258.46716847 -207.90611603 258.46716847 -205.74609375 260.00390625 C-205.02679688 260.54273438 -204.3075 261.0815625 -203.56640625 261.63671875 C-201.72483369 263.05830257 -201.72483369 263.05830257 -199.62109375 262.87890625 C-199.62109375 263.53890625 -199.62109375 264.19890625 -199.62109375 264.87890625 C-196.60130165 266.31860083 -193.5800734 267.75525712 -190.55859375 269.19140625 C-189.28725586 269.79758789 -189.28725586 269.79758789 -187.99023438 270.41601562 C-178.69750256 275.04697638 -178.69750256 275.04697638 -168.80859375 278.00390625 C-168.05964844 278.15085937 -167.31070313 278.2978125 -166.5390625 278.44921875 C-157.62915017 279.76125403 -148.84560972 280.02739453 -139.84628296 280.02607727 C-138.47137113 280.02938333 -137.09646025 280.03311044 -135.72155058 280.03721875 C-131.96690673 280.04716183 -128.21227886 280.05094299 -124.45762372 280.05360806 C-120.39882569 280.05753392 -116.34004005 280.06711022 -112.28125 280.07582092 C-102.49364073 280.09551671 -92.70603054 280.10564076 -82.91840643 280.11454871 C-78.30111941 280.11894114 -73.68383352 280.12430529 -69.06654739 280.12953758 C-53.70576656 280.14653962 -38.34498641 280.16103343 -22.98419762 280.16828632 C-19.00460179 280.17019597 -15.02500596 280.17211634 -11.04541016 280.17407227 C-10.0563968 280.17455601 -9.06738345 280.17503975 -8.0484 280.17553815 C7.97071006 280.18383748 23.98974542 280.20917737 40.00882287 280.24165294 C56.48027896 280.2747718 72.95169712 280.29273926 89.42318666 280.29593056 C98.66131823 280.29809071 107.89934073 280.30676712 117.13743973 280.33239174 C125.0045716 280.35416443 132.87156786 280.36211682 140.73872645 280.35242496 C144.74686159 280.34789981 148.75471729 280.34966162 152.76281357 280.3691864 C179.49270279 280.71531209 179.49270279 280.71531209 204.37890625 271.87890625 C205.70293296 271.51033853 207.03530237 271.16807317 208.37890625 270.87890625 C208.37890625 270.21890625 208.37890625 269.55890625 208.37890625 268.87890625 C210.35890625 268.21890625 212.33890625 267.55890625 214.37890625 266.87890625 C214.37890625 266.21890625 214.37890625 265.55890625 214.37890625 264.87890625 C215.03890625 264.87890625 215.69890625 264.87890625 216.37890625 264.87890625 C217.73277561 263.22887797 219.06568767 261.56146755 220.37890625 259.87890625 C221.03890625 259.54890625 221.69890625 259.21890625 222.37890625 258.87890625 C222.37890625 258.21890625 222.37890625 257.55890625 222.37890625 256.87890625 C223.03890625 256.87890625 223.69890625 256.87890625 224.37890625 256.87890625 C225.03890625 254.89890625 225.69890625 252.91890625 226.37890625 250.87890625 C227.03890625 250.87890625 227.69890625 250.87890625 228.37890625 250.87890625 C229.07043973 249.01176587 229.76191162 247.14460266 230.453125 245.27734375 C231.06750776 243.68565171 231.71595223 242.10667063 232.3984375 240.54296875 C239.67029375 223.71148126 238.60218733 205.85149101 232.37890625 188.87890625 C231.71890625 188.87890625 231.05890625 188.87890625 230.37890625 188.87890625 C230.29640625 188.36328125 230.21390625 187.84765625 230.12890625 187.31640625 C226.15819464 174.4115935 214.18648423 164.69021004 202.76171875 158.44921875 C191.12338587 152.74812235 179.14123793 151.39081167 166.37890625 150.87890625 C166.09273438 149.99976563 165.8065625 149.120625 165.51171875 148.21484375 C164.5103599 145.26601458 163.42355715 142.38904513 162.25390625 139.50390625 C161.90070313 138.62992187 161.5475 137.7559375 161.18359375 136.85546875 C160.91804688 136.20320313 160.6525 135.5509375 160.37890625 134.87890625 C159.71890625 134.87890625 159.05890625 134.87890625 158.37890625 134.87890625 C158.37890625 133.55890625 158.37890625 132.23890625 158.37890625 130.87890625 C157.71890625 130.87890625 157.05890625 130.87890625 156.37890625 130.87890625 C156.37890625 130.21890625 156.37890625 129.55890625 156.37890625 128.87890625 C155.71890625 128.87890625 155.05890625 128.87890625 154.37890625 128.87890625 C154.37890625 127.55890625 154.37890625 126.23890625 154.37890625 124.87890625 C153.71890625 124.87890625 153.05890625 124.87890625 152.37890625 124.87890625 C152.37890625 124.21890625 152.37890625 123.55890625 152.37890625 122.87890625 C151.71890625 122.87890625 151.05890625 122.87890625 150.37890625 122.87890625 C150.00765625 121.95078125 150.00765625 121.95078125 149.62890625 121.00390625 C148.55494414 118.72889097 148.55494414 118.72889097 146.31640625 117.87890625 C145.67703125 117.54890625 145.03765625 117.21890625 144.37890625 116.87890625 C144.23453125 116.21890625 144.09015625 115.55890625 143.94140625 114.87890625 C143.75578125 114.21890625 143.57015625 113.55890625 143.37890625 112.87890625 C140.88856239 111.58230191 140.88856239 111.58230191 138.37890625 110.87890625 C138.37890625 110.21890625 138.37890625 109.55890625 138.37890625 108.87890625 C137.71890625 108.87890625 137.05890625 108.87890625 136.37890625 108.87890625 C136.37890625 108.21890625 136.37890625 107.55890625 136.37890625 106.87890625 C124.41861718 97.33367555 107.13266651 92.77275207 92.12890625 92.31640625 C90.37356834 92.25627441 88.61834724 92.19260451 86.86328125 92.125 C86.09725586 92.10107178 85.33123047 92.07714355 84.54199219 92.05249023 C82.34114994 91.87587637 80.4564598 91.63631223 78.37890625 90.87890625 C77.25390625 88.19140625 77.25390625 88.19140625 76.37890625 84.87890625 C76.00765625 83.76515625 75.63640625 82.65140625 75.25390625 81.50390625 C74.82078125 80.20453125 74.82078125 80.20453125 74.37890625 78.87890625 C73.71890625 78.87890625 73.05890625 78.87890625 72.37890625 78.87890625 C72.37890625 77.55890625 72.37890625 76.23890625 72.37890625 74.87890625 C71.71890625 74.87890625 71.05890625 74.87890625 70.37890625 74.87890625 C70.00765625 73.59113281 70.00765625 73.59113281 69.62890625 72.27734375 C68.28041724 68.61113926 66.55418845 65.74283746 64.37890625 62.50390625 C63.67765625 61.44429687 62.97640625 60.3846875 62.25390625 59.29296875 C61.63515625 58.49632812 61.01640625 57.6996875 60.37890625 56.87890625 C59.71890625 56.87890625 59.05890625 56.87890625 58.37890625 56.87890625 C58.11392334 56.28867676 57.84894043 55.69844727 57.57592773 55.09033203 C56.34177161 52.81030221 55.0605059 51.3165074 53.2265625 49.49609375 C52.61490234 48.88636719 52.00324219 48.27664062 51.37304688 47.6484375 C50.41688477 46.71064453 50.41688477 46.71064453 49.44140625 45.75390625 C48.80783203 45.12097656 48.17425781 44.48804687 47.52148438 43.8359375 C42.79121589 38.67018564 42.79121589 38.67018564 36.37890625 36.87890625 C36.37890625 36.21890625 36.37890625 35.55890625 36.37890625 34.87890625 C33.56380632 32.60155615 33.56380632 32.60155615 30.37890625 32.87890625 C30.37890625 32.21890625 30.37890625 31.55890625 30.37890625 30.87890625 C14.22870772 21.88715721 14.22870772 21.88715721 -3.62109375 18.87890625 C-3.62109375 18.21890625 -3.62109375 17.55890625 -3.62109375 16.87890625 C-33.85074129 11.43562566 -72.77450743 15.97040506 -95.62109375 38.87890625 Z M226.37890625 279.87890625 C227.37890625 281.87890625 227.37890625 281.87890625 227.37890625 281.87890625 Z M-99.62109375 296.87890625 C-95.14784062 305.07987032 -91.47523313 311.03045693 -85.62109375 317.87890625 C-85.028125 318.61753906 -84.43515625 319.35617187 -83.82421875 320.1171875 C-75.38926984 330.26435894 -64.47379043 338.19031631 -52.62109375 343.87890625 C-51.76386719 344.30558594 -50.90664062 344.73226562 -50.0234375 345.171875 C-24.19007364 357.53688715 5.5069589 360.34935258 32.81054688 351.05078125 C43.1701361 347.56688936 43.1701361 347.56688936 52.37890625 341.87890625 C53.72216048 341.15009108 55.07707062 340.44244947 56.44140625 339.75390625 C64.3945398 335.39674397 71.43444792 329.50340469 77.11328125 322.4375 C79.67418472 319.28379481 82.67992953 316.53905093 85.62890625 313.75390625 C87.60334348 311.8991345 87.60334348 311.8991345 88.37890625 308.87890625 C89.36890625 307.88890625 90.35890625 306.89890625 91.37890625 305.87890625 C92.69890625 302.90890625 94.01890625 299.93890625 95.37890625 296.87890625 C31.02890625 296.87890625 -33.32109375 296.87890625 -99.62109375 296.87890625 Z " fill="#000102" transform="translate(257.62109375,23.12109375)"/>
<path d="M0 0 C10.26075611 1.10570495 20.50331727 1.48124025 30.8125 1.75 C31.58867676 1.77028259 32.36485352 1.79056519 33.16455078 1.8114624 C37.60950645 1.92536028 42.05461183 2.02923281 46.5 2.125 C47.04527344 3.21296875 47.59054688 4.3009375 48.15234375 5.421875 C64.72822224 37.94609537 91.22561409 61.33852109 125.92626953 72.63671875 C135.37134 75.57542404 144.59429674 77.57302211 154.5 78.125 C155.25716309 78.16882813 156.01432617 78.21265625 156.79443359 78.2578125 C188.29751207 79.7929879 220.28156524 69.46273601 244.5 49.125 C245.36882812 48.39539063 246.23765625 47.66578125 247.1328125 46.9140625 C255.40109444 39.70776173 262.50082404 31.90292759 268.625 22.8125 C269.20024414 21.96147705 269.20024414 21.96147705 269.78710938 21.09326172 C272.48426883 16.97361218 274.8353215 12.70290315 277.15966797 8.36254883 C277.48200912 7.76145546 277.80435028 7.16036209 278.13645935 6.54105377 C278.92534962 5.06959476 279.71281935 3.59737431 280.5 2.125 C288.28990023 1.96114346 296.07937969 1.83760412 303.87058163 1.7623148 C307.49044076 1.72613626 311.10910177 1.67726251 314.72827148 1.59692383 C346.58662226 0.90803544 346.58662226 0.90803544 359.5 9.125 C359.83 9.785 360.16 10.445 360.5 11.125 C359.63891602 13.62084961 359.63891602 13.62084961 358.25390625 16.77734375 C357.74972168 17.9382251 357.24553711 19.09910645 356.72607422 20.29516602 C356.17169041 21.55100623 355.61716289 22.80678302 355.0625 24.0625 C354.50715361 25.33419554 353.95263167 26.60625142 353.39892578 27.87866211 C352.56417345 29.79671406 351.72890318 31.71451709 350.89068604 33.63105774 C348.15215842 39.89636211 345.51592106 46.20276271 342.91235352 52.52514648 C341.62862584 55.60841991 340.35926881 58.33609679 338.5 61.125 C321.06348982 54.46881844 321.06348982 54.46881844 314.25 51.3125 C305.1877853 46.77390512 305.1877853 46.77390512 295.5 47.125 C292.042089 50.44139507 289.34953447 54.28665272 286.5 58.125 C280.87998824 64.70927721 275.02074541 71.41762452 268.5 77.125 C267.84 77.125 267.18 77.125 266.5 77.125 C266.5 77.785 266.5 78.445 266.5 79.125 C264.38710658 80.89113205 262.27233306 82.55152935 260.0625 84.1875 C256.13379209 86.98696651 256.13379209 86.98696651 252.5 90.125 C251.720445 95.85025637 252.62917995 100.16514589 255.15625 105.2734375 C256.99229662 109.16969922 258.51657227 113.16890478 260.0625 117.1875 C260.35519775 117.94345459 260.64789551 118.69940918 260.94946289 119.47827148 C262.83087793 124.34896943 264.67333179 129.23352676 266.5 134.125 C258.44743648 137.98978498 250.4235243 141.6266002 242.0390625 144.7265625 C239.27522514 145.81867483 236.59596466 146.97111464 233.8984375 148.2109375 C233.09833252 148.57775635 232.29822754 148.9445752 231.47387695 149.32250977 C229.90013942 150.05018612 228.3307008 150.78725411 226.76635742 151.53491211 C222.49060103 153.50932365 219.32018718 154.57569896 214.5 154.125 C212.07465326 149.54378949 210.01277201 144.97828949 208.1875 140.125 C206.1890967 134.84748292 204.09111671 129.62657031 201.875 124.4375 C201.44127075 123.39432617 201.44127075 123.39432617 200.9987793 122.33007812 C199.49763922 118.85801828 198.72249974 117.27333316 195.5 115.125 C193.18889525 114.84528264 193.18889525 114.84528264 190.6875 114.9375 C189.85605469 114.94394531 189.02460938 114.95039063 188.16796875 114.95703125 C185.47682017 115.07337542 185.47682017 115.07337542 182.7722168 115.62719727 C179.29031007 116.15690015 175.99783439 116.25452291 172.4765625 116.2578125 C171.48760483 116.2595195 171.48760483 116.2595195 170.47866821 116.26126099 C168.36074122 116.26272474 166.24291651 116.25635291 164.125 116.25 C162.67285151 116.25089594 161.22070307 116.25187263 159.76855469 116.25292969 C151.21569219 116.24135613 142.7635168 115.98201773 134.265625 114.953125 C131.4354793 114.88749251 131.4354793 114.88749251 129.3203125 116.65234375 C127.06123748 119.72100145 125.56920354 122.93735605 124.125 126.4375 C123.67991089 127.48514526 123.67991089 127.48514526 123.22583008 128.55395508 C120.20885049 135.70010927 117.33973984 142.90696159 114.5 150.125 C113.83448477 151.79212678 113.1682892 153.45898326 112.5 155.125 C109.15039709 154.53459186 106.18168183 153.70851119 103.04858398 152.39086914 C102.20098007 152.03702652 101.35337616 151.6831839 100.48008728 151.31861877 C99.57786942 150.93632614 98.67565155 150.55403351 97.74609375 150.16015625 C96.80822525 149.76678574 95.87035675 149.37341522 94.90406799 148.96812439 C92.9254486 148.1372506 90.9477604 147.30415626 88.97094727 146.46899414 C85.9467812 145.19142088 82.91996697 143.92030562 79.89257812 142.65039062 C77.96859237 141.84152068 76.04475901 141.0322881 74.12109375 140.22265625 C73.21685165 139.84238785 72.31260956 139.46211945 71.38096619 139.07032776 C70.53651443 138.71333298 69.69206268 138.3563382 68.82202148 137.98852539 C67.71213112 137.52005943 67.71213112 137.52005943 66.57981873 137.04212952 C64.51731181 136.13263392 62.50717763 135.15016214 60.5 134.125 C62.0609989 130.20773346 63.62408373 126.29130231 65.1875 122.375 C65.62255859 121.28316406 66.05761719 120.19132812 66.50585938 119.06640625 C66.94091797 117.97714844 67.37597656 116.88789063 67.82421875 115.765625 C68.26040527 114.66541016 68.6965918 113.56519531 69.14599609 112.43164062 C70.04952202 110.22512148 70.99560122 108.03555852 71.98291016 105.86523438 C73.98242102 101.43048388 75.46700537 98.03547335 75.64453125 93.13671875 C74.17734089 89.27595505 72.62837969 88.1979 69.1875 85.9375 C55.69459494 76.43201577 43.29267457 63.76124962 33.9609375 50.14453125 C32.65313464 48.00883149 32.65313464 48.00883149 30.5 47.125 C21.07412736 46.12224759 12.54913213 51.03192821 4.20703125 54.88671875 C1.52839014 56.11201346 -1.15849775 57.29858128 -3.875 58.4375 C-5.03128906 58.92669922 -5.03128906 58.92669922 -6.2109375 59.42578125 C-8.74606915 60.20016447 -10.86408927 60.25074132 -13.5 60.125 C-13.81710938 59.2484375 -14.13421875 58.371875 -14.4609375 57.46875 C-18.37756721 46.77787611 -22.71755213 36.28249616 -27.1328125 25.7890625 C-29.31690266 20.59181939 -31.42642476 15.36721694 -33.5 10.125 C-26.87769361 6.65369073 -20.19651652 3.75247549 -13.1875 1.140625 C-8.29114906 -0.70974018 -5.22183823 -0.61154439 0 0 Z " fill="#607C8A" transform="translate(92.5,317.875)"/>
<path d="M0 0 C0.91830597 -0.00637985 1.83661194 -0.0127597 2.78274536 -0.01933289 C4.2841658 -0.02100212 4.2841658 -0.02100212 5.81591797 -0.02270508 C6.84111542 -0.02603348 7.86631287 -0.02936188 8.9225769 -0.03279114 C11.09990997 -0.03786721 13.27725086 -0.04019926 15.45458984 -0.04003906 C18.77308199 -0.04221338 22.09123526 -0.06032819 25.40966797 -0.0793457 C27.52425017 -0.08228198 29.63883394 -0.08426521 31.75341797 -0.08520508 C32.74221954 -0.09239059 33.73102112 -0.09957611 34.74978638 -0.10697937 C40.12720865 -0.08932679 44.59820607 0.3661218 49.68310547 2.14526367 C49.68310547 2.80526367 49.68310547 3.46526367 49.68310547 4.14526367 C50.25544922 4.23936523 50.82779297 4.3334668 51.41748047 4.43041992 C54.20642866 5.31038116 55.75587433 6.64341519 57.93310547 8.58276367 C58.99271484 9.50895508 58.99271484 9.50895508 60.07373047 10.45385742 C61.68310547 12.14526367 61.68310547 12.14526367 61.68310547 14.14526367 C62.34310547 14.14526367 63.00310547 14.14526367 63.68310547 14.14526367 C66.21082077 18.77744891 68.2724828 22.80716894 68.68310547 28.14526367 C68.79525391 29.4059668 68.79525391 29.4059668 68.90966797 30.69213867 C69.35555525 39.56294886 67.80932111 49.36754029 61.82763672 56.29370117 C59.93310547 57.89526367 59.93310547 57.89526367 56.68310547 60.14526367 C56.18810547 61.13526367 56.18810547 61.13526367 55.68310547 62.14526367 C53.72216797 63.21557617 53.72216797 63.21557617 51.30810547 64.27026367 C50.51662109 64.6234668 49.72513672 64.97666992 48.90966797 65.34057617 C46.68310547 66.14526367 46.68310547 66.14526367 43.68310547 66.14526367 C43.68310547 66.80526367 43.68310547 67.46526367 43.68310547 68.14526367 C32.46310547 68.14526367 21.24310547 68.14526367 9.68310547 68.14526367 C9.68310547 83.32526367 9.68310547 98.50526367 9.68310547 114.14526367 C9.02310547 114.14526367 8.36310547 114.14526367 7.68310547 114.14526367 C7.35310547 115.13526367 7.02310547 116.12526367 6.68310547 117.14526367 C3.22648216 119.44967921 1.73452665 119.40386502 -2.31689453 119.14526367 C-2.97689453 118.81526367 -3.63689453 118.48526367 -4.31689453 118.14526367 C-4.31689453 117.48526367 -4.31689453 116.82526367 -4.31689453 116.14526367 C-4.97689453 116.14526367 -5.63689453 116.14526367 -6.31689453 116.14526367 C-8.00691685 113.18937001 -8.56855846 111.06826445 -8.57759094 107.67372131 C-8.58467575 106.78354813 -8.59176056 105.89337494 -8.59906006 104.97622681 C-8.59658264 104.00728485 -8.59410522 103.0383429 -8.59155273 102.04003906 C-8.59666367 101.01360794 -8.6017746 99.98717682 -8.60704041 98.92964172 C-8.6209494 95.53400861 -8.61997866 92.13857815 -8.61767578 88.74291992 C-8.62156191 86.38406804 -8.6258964 84.02521685 -8.63066101 81.66636658 C-8.63812598 76.72091402 -8.63782985 71.77553286 -8.63256836 66.83007812 C-8.62677255 60.49017974 -8.64370632 54.15057339 -8.66691303 47.8107233 C-8.68163894 42.93886097 -8.68252363 38.06706916 -8.67940331 33.19518852 C-8.67991706 30.85759337 -8.68516496 28.51999433 -8.69521523 26.18242073 C-8.70754025 22.91471456 -8.70081126 19.64757972 -8.68920898 16.37988281 C-8.69685272 15.41296509 -8.70449646 14.44604736 -8.71237183 13.4498291 C-8.65835043 6.57235915 -7.94690481 0.03732307 0 0 Z " fill="#020507" transform="translate(238.31689453125,149.854736328125)"/>
<path d="M0 0 C1.4375 2.0625 1.4375 2.0625 2 4 C2.66 4 3.32 4 4 4 C4.15855469 4.72703125 4.31710938 5.4540625 4.48046875 6.203125 C6.00815984 12.78654517 8.04340793 18.7919086 10.734375 24.984375 C13.33437775 31.17944328 15.48769679 37.57606958 17 44.125 C17.64859701 46.88861966 18.53566348 49.3766915 19.65234375 51.984375 C23.11421216 60.51948262 25.75459651 69.35905417 28.5625 78.125 C29.43060367 80.82915138 30.29976237 83.53295113 31.17112732 86.23605347 C31.70966056 87.90721653 32.24629979 89.57899165 32.78065491 91.25149536 C33.98814913 95.00371003 35.25177318 98.70951198 36.66894531 102.38818359 C37.91033564 105.7566958 38.33494533 107.96131216 38.1875 111.5 C38.16042969 112.3559375 38.13335937 113.211875 38.10546875 114.09375 C38.07066406 114.7228125 38.03585938 115.351875 38 116 C33.78389753 118.40920141 30.86758823 119.44250802 26 119 C25.34 118.67 24.68 118.34 24 118 C24 117.34 24 116.68 24 116 C23.34 116 22.68 116 22 116 C22 114.68 22 113.36 22 112 C21.34 112 20.68 112 20 112 C19.69707031 110.93523437 19.39414063 109.87046875 19.08203125 108.7734375 C16.66119023 100.36040608 14.06578947 92.12777326 10.91796875 83.953125 C10 81 10 81 10 76 C0.43 76 -9.14 76 -19 76 C-19.99 80.95 -19.99 80.95 -21 86 C-21.96484375 88.8125 -21.96484375 88.8125 -22.9375 91 C-24.3357257 94.30208283 -25.51406326 97.55191522 -26.5 101 C-27.5310918 104.52800599 -28.65266651 107.99294641 -29.9375 111.4375 C-30.23527344 112.24058594 -30.53304687 113.04367187 -30.83984375 113.87109375 C-32.21773296 116.39954364 -33.53660242 117.53313755 -36 119 C-39.11189466 119.24895157 -41.19084526 119.40457737 -44 118 C-44 117.34 -44 116.68 -44 116 C-44.66 116 -45.32 116 -46 116 C-48.15279715 111.00216351 -47.9339746 108.21139302 -46.3125 103.0625 C-45.73628906 101.21398437 -45.73628906 101.21398437 -45.1484375 99.328125 C-44.32001965 96.92740389 -43.4801371 94.62199723 -42.4375 92.3125 C-40.77769544 88.48773296 -39.80046436 84.65178005 -38.75 80.625 C-37.79416364 77.27957275 -36.36975421 74.19609316 -35 71 C-34.47794954 69.17282337 -33.97967541 67.33875572 -33.5 65.5 C-32.35619223 61.11540356 -30.78621004 57.16782344 -29 53 C-28.47794954 51.17282337 -27.97967541 49.33875572 -27.5 47.5 C-26.35619223 43.11540356 -24.78621004 39.16782344 -23 35 C-22.47794954 33.17282337 -21.97967541 31.33875572 -21.5 29.5 C-20.35268544 25.11285935 -18.7967467 21.16845234 -17 17 C-16.01743603 13.67156456 -15.06929649 10.33753816 -14.16015625 6.98828125 C-11.36192921 -0.21927326 -7.21308897 -1.67446708 0 0 Z " fill="#010406" transform="translate(184,150)"/>
<path d="M0 0 C1.20094299 0.00022659 2.40188599 0.00045319 3.63922119 0.00068665 C5.57689362 0.02391243 5.57689362 0.02391243 7.55371094 0.04760742 C8.89320399 0.05320566 10.23270319 0.05747468 11.57220459 0.06047058 C15.09046514 0.07190164 18.60835164 0.10135323 22.12646484 0.13458252 C25.71934957 0.16532128 29.31229499 0.17898401 32.90527344 0.1940918 C39.9496969 0.22622504 46.99386694 0.27739996 54.03808594 0.34057617 C54.03808594 1.00057617 54.03808594 1.66057617 54.03808594 2.34057617 C54.69808594 2.34057617 55.35808594 2.34057617 56.03808594 2.34057617 C57.60744188 5.47928805 57.39009697 7.87913439 57.03808594 11.34057617 C55.38808594 12.99057617 53.73808594 14.64057617 52.03808594 16.34057617 C45.43808594 16.34057617 38.83808594 16.34057617 32.03808594 16.34057617 C32.03808594 44.72057617 32.03808594 73.10057617 32.03808594 102.34057617 C38.96808594 102.34057617 45.89808594 102.34057617 53.03808594 102.34057617 C57.07189711 106.37438734 57.48687871 106.91368009 57.66699219 112.24291992 C56.66060099 115.59964088 55.02760276 117.61974192 52.03808594 119.34057617 C47.84013884 120.06258856 43.6894697 119.94519093 39.44042969 119.86401367 C38.2140126 119.85931061 36.98759552 119.85460754 35.72401428 119.84976196 C31.80729973 119.82841934 27.89193864 119.77180211 23.97558594 119.71557617 C21.33432264 119.69906929 18.69304491 119.68472116 16.05175781 119.67260742 C11.21881756 119.63865103 6.38602638 119.60371389 1.5534668 119.53344727 C0.58259628 119.52058685 -0.38827423 119.50772644 -1.38856506 119.49447632 C-3.77471328 119.35177179 -5.72822708 119.18804207 -7.96191406 118.34057617 C-10.00223161 115.28009985 -10.27784931 114.40561623 -10.33691406 110.90307617 C-10.36527344 110.14124023 -10.39363281 109.3794043 -10.42285156 108.59448242 C-9.96191406 106.34057617 -9.96191406 106.34057617 -5.96191406 102.34057617 C0.96808594 102.34057617 7.89808594 102.34057617 15.03808594 102.34057617 C15.03808594 73.96057617 15.03808594 45.58057617 15.03808594 16.34057617 C7.77808594 16.34057617 0.51808594 16.34057617 -6.96191406 16.34057617 C-10.3926659 11.76624039 -10.3926659 11.76624039 -10.39941406 7.77807617 C-10.41875 7.01366211 -10.43808594 6.24924805 -10.45800781 5.46166992 C-9.96191406 3.34057617 -9.96191406 3.34057617 -8.30352783 1.72929382 C-5.33859758 -0.02908795 -3.43673732 -0.02166011 0 0 Z " fill="#000204" transform="translate(317.9619140625,149.659423828125)"/>
<path d="M0 0 C3.69186542 2.59216083 4.82883761 4.04149064 5.625 8.5 C4.84124642 12.88902006 3.44887153 14.25657947 0 17 C-1.31836295 17.69580267 -2.64791086 18.37224433 -4 19 C-4.33 19.66 -4.66 20.32 -5 21 C-6.66666667 21.66666667 -8.33333333 22.33333333 -10 23 C-10.33 23.66 -10.66 24.32 -11 25 C-11.66 25 -12.32 25 -13 25 C-13 25.66 -13 26.32 -13 27 C-13.99 27.33 -14.98 27.66 -16 28 C-16.495 29.485 -16.495 29.485 -17 31 C-17.66 31 -18.32 31 -19 31 C-19 31.66 -19 32.32 -19 33 C-19.721875 33.66 -20.44375 34.32 -21.1875 35 C-29.24968485 42.76527719 -32.67039981 56.16169541 -33.125 66.97265625 C-33.24090674 73.16642259 -32.90085444 78.85273136 -31.4375 84.87890625 C-31 87 -31 87 -31 91 C-30.34 91 -29.68 91 -29 91 C-29 92.32 -29 93.64 -29 95 C-28.34 95 -27.68 95 -27 95 C-27 96.32 -27 97.64 -27 99 C-26.34 99 -25.68 99 -25 99 C-24.0234375 100.72526042 -23.046875 102.45052083 -22.0703125 104.17578125 C-21.10571419 105.81982289 -20.05732941 107.41400588 -19 109 C-18.43448625 113.36253463 -18.50677349 115.29752588 -21.0625 118.9375 C-24.74062512 121.52001338 -26.59231863 121.72125695 -31 121 C-33.4375 119.125 -33.4375 119.125 -35 117 C-35 116.34 -35 115.68 -35 115 C-35.66 115 -36.32 115 -37 115 C-39 112 -39 112 -39 109 C-39.66 109 -40.32 109 -41 109 C-43.71391278 104.22642128 -45.56561146 100.65611463 -45 95 C-45.66 95 -46.32 95 -47 95 C-53.86112541 77.05080586 -52.9139588 57.39439012 -45.234375 39.87890625 C-41.48008466 31.75011719 -37.07721553 24.63193095 -31 18 C-30.15501953 17.05253906 -30.15501953 17.05253906 -29.29296875 16.0859375 C-24.75697788 11.26312754 -19.52696864 7.60726225 -14 4 C-13.35675781 3.56171875 -12.71351562 3.1234375 -12.05078125 2.671875 C-7.93411727 0.04461079 -4.83303425 -0.80550571 0 0 Z " fill="#010408" transform="translate(85,139)"/>
<path d="M0 0 C14.58894694 1.51621502 25.75851284 10.54690215 35.0078125 21.34375 C41 29.10175121 41 29.10175121 41 34 C41.66 34 42.32 34 43 34 C45.54406922 40.99323212 47.70404163 47.53670193 48 55 C48.05994141 56.27617187 48.05994141 56.27617187 48.12109375 57.578125 C48.41481958 69.67271799 45.64781436 79.90185352 41 91 C40.3309959 92.66572979 39.66348783 94.33206531 39 96 C38.34 96 37.68 96 37 96 C36.34 97.98 35.68 99.96 35 102 C34.34 102 33.68 102 33 102 C33 102.66 33 103.32 33 104 C31.34997172 105.35386936 29.6825613 106.68678142 28 108 C27.67 108.66 27.34 109.32 27 110 C26.34 110 25.68 110 25 110 C25 110.66 25 111.32 25 112 C22.03 112.99 22.03 112.99 19 114 C19 114.66 19 115.32 19 116 C17.824375 116.433125 16.64875 116.86625 15.4375 117.3125 C12.64243675 118.35321504 9.9083011 119.46662771 7.1875 120.6875 C4 122 4 122 1 122 C2.11263578 118.66209265 2.90490039 118.02812376 5.5625 115.875 C19.0452138 104.26688812 27.81365993 88.81592886 30 71 C30.84648601 59.63005312 30.71291351 48.49916542 26.375 37.8125 C25.03078607 34.44183292 24.72569568 31.657391 25 28 C24.34 28 23.68 28 23 28 C23 26.68 23 25.36 23 24 C22.34 24 21.68 24 21 24 C19.88671875 22.42578125 19.88671875 22.42578125 18.6875 20.3125 C17.06299375 17.58081538 15.49770017 15.31050186 13.1875 13.125 C12.465625 12.42375 11.74375 11.7225 11 11 C11 10.34 11 9.68 11 9 C10.34 9 9.68 9 9 9 C9 8.34 9 7.68 9 7 C8.443125 6.773125 7.88625 6.54625 7.3125 6.3125 C4.36753316 4.64103234 2.31843456 2.44723648 0 0 Z " fill="#0176B9" transform="translate(447,178)"/>
<path d="M0 0 C1.69873873 2.35019679 2.15396847 3.3725807 2.109375 6.2265625 C2.12484375 7.2165625 2.12484375 7.2165625 2.140625 8.2265625 C1.33642618 11.25413453 0.11111528 12.34629884 -2.390625 14.2265625 C-5.12148308 14.96332525 -7.61576167 15.504368 -10.390625 15.9140625 C-11.80742144 16.14634525 -13.22409242 16.37939481 -14.640625 16.61328125 C-15.878125 16.81566406 -17.115625 17.01804687 -18.390625 17.2265625 C-19.72919583 17.53819852 -21.06669309 17.85765439 -22.390625 18.2265625 C-22.390625 18.8865625 -22.390625 19.5465625 -22.390625 20.2265625 C-23.710625 20.2265625 -25.030625 20.2265625 -26.390625 20.2265625 C-26.390625 20.8865625 -26.390625 21.5465625 -26.390625 22.2265625 C-27.710625 22.2265625 -29.030625 22.2265625 -30.390625 22.2265625 C-30.390625 22.8865625 -30.390625 23.5465625 -30.390625 24.2265625 C-31.1125 24.4534375 -31.834375 24.6803125 -32.578125 24.9140625 C-36.98799749 26.972003 -39.62559407 30.2429513 -42.578125 34.0390625 C-43.17625 34.7609375 -43.774375 35.4828125 -44.390625 36.2265625 C-45.050625 36.2265625 -45.710625 36.2265625 -46.390625 36.2265625 C-48.12724834 39.45172013 -49.2812178 42.73985416 -50.390625 46.2265625 C-51.050625 46.2265625 -51.710625 46.2265625 -52.390625 46.2265625 C-52.390625 47.5465625 -52.390625 48.8665625 -52.390625 50.2265625 C-53.380625 50.7215625 -53.380625 50.7215625 -54.390625 51.2265625 C-54.81689569 53.15238359 -54.81689569 53.15238359 -55.078125 55.4140625 C-56.02648184 60.05212018 -57.6975993 62.35496412 -61.4375 65.20703125 C-64.45511326 66.78222537 -67.07923858 66.63203839 -70.390625 66.2265625 C-70.390625 65.5665625 -70.390625 64.9065625 -70.390625 64.2265625 C-71.050625 64.2265625 -71.710625 64.2265625 -72.390625 64.2265625 C-72.390625 63.5665625 -72.390625 62.9065625 -72.390625 62.2265625 C-73.050625 62.2265625 -73.710625 62.2265625 -74.390625 62.2265625 C-74.390625 59.5865625 -74.390625 56.9465625 -74.390625 54.2265625 C-73.730625 54.2265625 -73.070625 54.2265625 -72.390625 54.2265625 C-72.37 53.0096875 -72.349375 51.7928125 -72.328125 50.5390625 C-71.37530835 41.68347244 -65.52964356 33.29403751 -60.390625 26.2265625 C-59.730625 26.2265625 -59.070625 26.2265625 -58.390625 26.2265625 C-57.730625 24.9065625 -57.070625 23.5865625 -56.390625 22.2265625 C-55.730625 22.2265625 -55.070625 22.2265625 -54.390625 22.2265625 C-54.390625 21.5665625 -54.390625 20.9065625 -54.390625 20.2265625 C-53.730625 20.2265625 -53.070625 20.2265625 -52.390625 20.2265625 C-52.390625 19.5665625 -52.390625 18.9065625 -52.390625 18.2265625 C-51.730625 18.2265625 -51.070625 18.2265625 -50.390625 18.2265625 C-50.14054687 17.63359375 -49.89046875 17.040625 -49.6328125 16.4296875 C-48.22084888 13.92545014 -46.80956741 12.69052702 -44.515625 10.9765625 C-43.83757812 10.45578125 -43.15953125 9.935 -42.4609375 9.3984375 C-40.390625 8.2265625 -40.390625 8.2265625 -36.390625 8.2265625 C-36.060625 7.2365625 -35.730625 6.2465625 -35.390625 5.2265625 C-26.6838819 0.06984471 -9.13233952 -6.77464402 0 0 Z " fill="#020406" transform="translate(228.390625,57.7734375)"/>
<path d="M0 0 C4.56454251 0.54339792 7.9728176 1.79463821 12 4 C10.6489735 7.01015294 9.13664313 9.11967466 6.8125 11.453125 C6.19632812 12.071875 5.58015625 12.690625 4.9453125 13.328125 C4.30335938 13.96234375 3.66140625 14.5965625 3 15.25 C2.35804688 15.8996875 1.71609375 16.549375 1.0546875 17.21875 C0.43851562 17.83234375 -0.17765625 18.4459375 -0.8125 19.078125 C-1.37582031 19.63918945 -1.93914062 20.20025391 -2.51953125 20.77832031 C-4 22 -4 22 -6 22 C-6 22.66 -6 23.32 -6 24 C-8.11289342 25.76613205 -10.22766694 27.42652935 -12.4375 29.0625 C-16.36620791 31.86196651 -16.36620791 31.86196651 -20 35 C-20.779555 40.72525637 -19.87082005 45.04014589 -17.34375 50.1484375 C-15.50770338 54.04469922 -13.98342773 58.04390478 -12.4375 62.0625 C-12.14480225 62.81845459 -11.85210449 63.57440918 -11.55053711 64.35327148 C-9.66912207 69.22396943 -7.82666821 74.10852676 -6 79 C-14.05256352 82.86478498 -22.0764757 86.5016002 -30.4609375 89.6015625 C-33.22477486 90.69367483 -35.90403534 91.84611464 -38.6015625 93.0859375 C-39.80171997 93.63616577 -39.80171997 93.63616577 -41.02612305 94.19750977 C-42.59986058 94.92518612 -44.1692992 95.66225411 -45.73364258 96.40991211 C-50.00939897 98.38432365 -53.17981282 99.45069896 -58 99 C-58.33 98.34 -58.66 97.68 -59 97 C-57.741875 96.773125 -56.48375 96.54625 -55.1875 96.3125 C-50.38225005 95.2505247 -46.20877059 93.41114045 -41.78125 91.296875 C-38.31498995 89.6805852 -34.77416757 88.32613158 -31.19140625 86.9921875 C-28.70384491 85.86591195 -26.917732 84.96578452 -25 83 C-24.37822012 78.49831369 -25.41651889 75.33667476 -27.25 71.25 C-27.70890625 70.20457031 -28.1678125 69.15914063 -28.640625 68.08203125 C-29.08921875 67.06496094 -29.5378125 66.04789062 -30 65 C-30.67472476 63.31570573 -31.34198177 61.6283911 -32 59.9375 C-33.79980743 55.38288529 -35.84075302 50.96226069 -37.94921875 46.54296875 C-38.99027022 44.02354679 -39.56149638 41.68402763 -40 39 C-39.47792969 38.59910156 -38.95585937 38.19820313 -38.41796875 37.78515625 C-36.83401786 36.56182465 -35.25509486 35.33197074 -33.6796875 34.09765625 C-31.9443025 32.73919889 -30.19998854 31.39204022 -28.4453125 30.05859375 C-22.71182687 25.57558644 -17.65602231 20.74602575 -12.6875 15.4375 C-12.11298096 14.82455078 -11.53846191 14.21160156 -10.9465332 13.58007812 C-6.98663982 9.26958413 -3.43099768 4.74026578 0 0 Z " fill="#344650" transform="translate(365,373)"/>
<path d="M0 0 C6.7134375 -0.0928125 6.7134375 -0.0928125 13.5625 -0.1875 C14.96056885 -0.21481201 16.3586377 -0.24212402 17.79907227 -0.27026367 C29.6824853 -0.34980001 29.6824853 -0.34980001 35 3 C35.495 4.485 35.495 4.485 36 6 C36.66 6 37.32 6 38 6 C38 6.66 38 7.32 38 8 C38.66 8 39.32 8 40 8 C42.81048573 12.80030963 42.62913012 17.58334308 42 23 C40.43587258 27.4021318 37.66773422 31.13748976 34 34 C31.25266464 34.34895136 28.90870704 34.46910269 26.171875 34.390625 C25.50752441 34.38659668 24.84317383 34.38256836 24.15869141 34.37841797 C21.68884465 34.35756825 19.21939315 34.30172223 16.75 34.25 C8.45875 34.12625 8.45875 34.12625 0 34 C0 22.78 0 11.56 0 0 Z " fill="#03A6F0" transform="translate(248,166)"/>
<path d="M0 0 C5.26902873 0.54857497 9.4706203 1.79902314 14.375 3.9375 C15.00277344 4.20240234 15.63054687 4.46730469 16.27734375 4.74023438 C20.86934955 6.7386991 20.86934955 6.7386991 22 9 C21.13891602 11.49584961 21.13891602 11.49584961 19.75390625 14.65234375 C19.24972168 15.8132251 18.74553711 16.97410645 18.22607422 18.17016602 C17.67169041 19.42600623 17.11716289 20.68178302 16.5625 21.9375 C16.00715361 23.20919554 15.45263167 24.48125142 14.89892578 25.75366211 C14.06417345 27.67171406 13.22890318 29.58951709 12.39068604 31.50605774 C9.65215842 37.77136211 7.01592106 44.07776271 4.41235352 50.40014648 C3.12862584 53.48341991 1.85926881 56.21109679 0 59 C-5.28 57.02 -10.56 55.04 -16 53 C-15.01 52.505 -15.01 52.505 -14 52 C-13.23208625 49.88936722 -13.23208625 49.88936722 -12.625 47.375 C-11.51333443 43.43110103 -10.1602441 40.28538757 -8.02734375 36.81640625 C-6.41436245 33.96455718 -5.31648812 30.93843293 -4.1484375 27.8828125 C-3.29093899 25.73031624 -2.36859563 23.6034455 -1.4140625 21.4921875 C-1.13933105 20.88318604 -0.86459961 20.27418457 -0.58154297 19.64672852 C0.21378047 17.89239352 1.02068338 16.14332188 1.828125 14.39453125 C3.11027411 10.68057265 3.32121738 7.90184646 3 4 C1.64114884 1.59916562 1.64114884 1.59916562 0 0 Z " fill="#36464F" transform="translate(431,320)"/>
<path d="M0 0 C5.61 0.33 11.22 0.66 17 1 C16.08689818 5.5655091 14.655944 9.0838767 12.625 13.1875 C10.06385771 18.45447458 8.04511096 23.48597527 6.80078125 29.2421875 C6 31 6 31 4.37109375 31.94140625 C0.79184208 32.02985563 -2.07100585 30.5389231 -5.25 29.0625 C-5.8996875 28.77181641 -6.549375 28.48113281 -7.21875 28.18164062 C-8.81715215 27.46471025 -10.40923054 26.73371051 -12 26 C-11.53207031 25.2471875 -11.06414062 24.494375 -10.58203125 23.71875 C-9.02472692 21.04249366 -8.00107361 18.37665741 -6.9609375 15.46875 C-4.90962352 10.19870759 -2.39897898 5.11782182 0 0 Z " fill="#35474F" transform="translate(200,441)"/>
<path d="M0 0 C4.30764815 1.56641751 8.06171464 3.68336156 12 6 C12 6.66 12 7.32 12 8 C12.66 8 13.32 8 14 8 C14 8.66 14 9.32 14 10 C14.804375 10.2475 15.60875 10.495 16.4375 10.75 C17.283125 11.1625 18.12875 11.575 19 12 C19.3721042 13.32303717 19.70630173 14.65737935 20 16 C21.32467746 16.6837045 22.65863633 17.34964186 24 18 C25.25 20.125 25.25 20.125 26 22 C26.66 22 27.32 22 28 22 C28 22.66 28 23.32 28 24 C28.66 24 29.32 24 30 24 C30 25.32 30 26.64 30 28 C30.66 28 31.32 28 32 28 C32 28.66 32 29.32 32 30 C32.66 30 33.32 30 34 30 C34 31.32 34 32.64 34 34 C34.66 34 35.32 34 36 34 C36.50403768 35.29009643 37.00309926 36.58213789 37.5 37.875 C37.7784375 38.59429687 38.056875 39.31359375 38.34375 40.0546875 C39 42 39 42 39 44 C34.2069836 44.29956353 30.39988658 44.00360968 26 42 C22.48353622 37.62536672 20.71193318 32.16046375 18.7734375 26.95483398 C15.68756418 19.15540606 9.49831193 11.81572478 3 6.625 C2.01 5.75875 1.02 4.8925 0 4 C0 2.68 0 1.36 0 0 Z " fill="#0476B9" transform="translate(382,124)"/>
<path d="M0 0 C3.01015294 1.3510265 5.11967466 2.86335687 7.453125 5.1875 C8.071875 5.80367188 8.690625 6.41984375 9.328125 7.0546875 C9.96234375 7.69664063 10.5965625 8.33859375 11.25 9 C11.8996875 9.64195313 12.549375 10.28390625 13.21875 10.9453125 C13.83234375 11.56148437 14.4459375 12.17765625 15.078125 12.8125 C15.63918945 13.37582031 16.20025391 13.93914062 16.77832031 14.51953125 C18 16 18 16 18 18 C18.66 18 19.32 18 20 18 C21.14501953 19.43701172 21.14501953 19.43701172 22.3828125 21.4296875 C22.82753906 22.14253906 23.27226562 22.85539062 23.73046875 23.58984375 C24.19066406 24.34394531 24.65085937 25.09804687 25.125 25.875 C25.59292969 26.62136719 26.06085938 27.36773437 26.54296875 28.13671875 C30 33.73045736 30 33.73045736 30 36 C30.66 36 31.32 36 32 36 C32 37.32 32 38.64 32 40 C32.66 40 33.32 40 34 40 C34.495 42.475 34.495 42.475 35 45 C32.36 45 29.72 45 27 45 C26.36384766 43.58460937 26.36384766 43.58460937 25.71484375 42.140625 C20.22141563 30.04969743 14.16214383 19.03353052 5.73144531 8.71850586 C3.45959821 5.9327118 1.40968969 3.32458609 0 0 Z " fill="#0275BA" transform="translate(298,62)"/>
<path d="M0 0 C0.66 0 1.32 0 2 0 C3.60355101 3.50776784 4.22036864 6.14354879 4 10 C4.66 10 5.32 10 6 10 C6 11.98 6 13.96 6 16 C6.66 16 7.32 16 8 16 C8.33 18.31 8.66 20.62 9 23 C4.05 23 -0.9 23 -6 23 C-4.875 15.125 -4.875 15.125 -3.80859375 11.81640625 C-3.58623047 11.11708984 -3.36386719 10.41777344 -3.13476562 9.69726562 C-2.78961914 8.64055664 -2.78961914 8.64055664 -2.4375 7.5625 C-2.20353516 6.83095703 -1.96957031 6.09941406 -1.72851562 5.34570312 C-1.15732778 3.56219821 -0.57936877 1.78086417 0 0 Z " fill="#08A0E5" transform="translate(178,186)"/>
<path d="M0 0 C3.01015294 1.3510265 5.11967466 2.86335687 7.453125 5.1875 C8.071875 5.80367188 8.690625 6.41984375 9.328125 7.0546875 C9.96234375 7.69664063 10.5965625 8.33859375 11.25 9 C11.8996875 9.64195313 12.549375 10.28390625 13.21875 10.9453125 C13.83234375 11.56148437 14.4459375 12.17765625 15.078125 12.8125 C15.63918945 13.37582031 16.20025391 13.93914062 16.77832031 14.51953125 C18 16 18 16 18 18 C18.66 18 19.32 18 20 18 C24 23.41176471 24 23.41176471 24 26 C23.34 26 22.68 26 22 26 C22 27.32 22 28.64 22 30 C21.34 30 20.68 30 20 30 C18.95256378 28.33265255 17.98993698 26.61196021 17.0625 24.875 C13.77412687 19.03362833 9.97364953 13.90472242 5.73266602 8.72216797 C3.46193 5.93416625 1.4101449 3.32565965 0 0 Z " fill="#0379B1" transform="translate(298,62)"/>
<path d="M0 0 C0.33 0 0.66 0 1 0 C1 10.89 1 21.78 1 33 C-2.95873612 29.04126388 -2.09298881 21.96173164 -2.1875 16.625 C-2.15396425 10.87697183 -1.40679439 5.56437423 0 0 Z " fill="#1F8BB4" transform="translate(53,193)"/>
<path d="M0 0 C1.29611206 0.14924927 1.29611206 0.14924927 2.6184082 0.30151367 C3.55620117 0.40141602 4.49399414 0.50131836 5.46020508 0.60424805 C6.43666992 0.72477539 7.41313477 0.84530273 8.41918945 0.96948242 C9.90128906 1.13287109 9.90128906 1.13287109 11.41333008 1.29956055 C13.85481561 1.57083672 16.29357172 1.85716454 18.73168945 2.15698242 C18.73168945 2.48698242 18.73168945 2.81698242 18.73168945 3.15698242 C10.81168945 3.15698242 2.89168945 3.15698242 -5.26831055 3.15698242 C-2.26831055 0.15698242 -2.26831055 0.15698242 0 0 Z " fill="#696B6A" transform="translate(86.268310546875,316.843017578125)"/>
<path d="M0 0 C4.2742558 1.5830577 6.26531794 4.50568404 9 8 C7.68 8 6.36 8 5 8 C0 2.77272727 0 2.77272727 0 0 Z " fill="#0F70A2" transform="translate(298,62)"/>
<path d="M0 0 C1.98 0.66 3.96 1.32 6 2 C6 2.66 6 3.32 6 4 C4.02 4 2.04 4 0 4 C0 2.68 0 1.36 0 0 Z " fill="#0497D5" transform="translate(376,122)"/>
<path d="M0 0 C4.875 1.75 4.875 1.75 6 4 C4.02 4 2.04 4 0 4 C0 2.68 0 1.36 0 0 Z " fill="#0E6A9A" transform="translate(382,124)"/>
<path d="M0 0 C3 1 3 1 3 1 Z " fill="#000000" transform="translate(144,416)"/>
<path d="" fill="#000000" transform="translate(0,0)"/>
<path d="" fill="#000000" transform="translate(0,0)"/>
<path d="" fill="#000000" transform="translate(0,0)"/>
<path d="" fill="#000000" transform="translate(0,0)"/>
<path d="" fill="#000000" transform="translate(0,0)"/>
<path d="" fill="#000000" transform="translate(0,0)"/>
<path d="" fill="#000000" transform="translate(0,0)"/>
<path d="" fill="#000000" transform="translate(0,0)"/>
<path d="" fill="#000000" transform="translate(0,0)"/>
<path d="" fill="#000000" transform="translate(0,0)"/>
<path d="" fill="#000000" transform="translate(0,0)"/>
</svg>
